# xmcd CD database file
#
# Track frame offsets:
#	150
#	22317
#	43052
#	61757
#	82082
#	110330
#	133157
#	156425
#	178100
#	206562
#	226642
#	247632
#	271807
#	290330
#	317945
#
# Disc length: 4499 seconds
#
# Revision: 3
# Processed by: cddbd v1.5.2PL0 Copyright (c) Steve Scherf et al.
# Submitted via: CDex 1.70beta3
#
DISCID=d211910f
DTITLE=Pride Of Lions - Pride Of Lions
DYEAR=2003
DGENRE=Melodic Hard Rock
TTITLE0=It's Criminal
TTITLE1=Gone
TTITLE2=Interrupted Melody
TTITLE3=Sound Of Home
TTITLE4=Prideland
TTITLE5=Unbreakable
TTITLE6=First Time Around The Sun
TTITLE7=Turn To Me
TTITLE8=Madness Of Love
TTITLE9=Love Is On The Rocks
TTITLE10=Last Safe Place
TTITLE11=Music And Me
TTITLE12=Surrender To The Night (Bonus Tracks)
TTITLE13=Stand By You (Bonus Tracks)
TTITLE14=So Delay (Bonus Tracks)
EXTD=Japan Release Version YEAR: 2003
EXTT0=
EXTT1=
EXTT2=
EXTT3=
EXTT4=
EXTT5=
EXTT6=
EXTT7=
EXTT8=
EXTT9=
EXTT10=
EXTT11=
EXTT12=Japan Bonus Track
EXTT13=Japan Bonus Track
EXTT14=Japan Bonus Track
PLAYORDER=
